<?xml version="1.0" encoding="utf-8"?>
<!-- Generator: Adobe Illustrator 25.2.0, SVG Export Plug-In . SVG Version: 6.00 Build 0)  -->
<svg version="1.1" id="Layer_1" xmlns="http://www.w3.org/2000/svg" xmlns:xlink="http://www.w3.org/1999/xlink" x="0px" y="0px"
	 viewBox="0 0 100 50" style="enable-background:new 0 0 100 50;" xml:space="preserve">
<style type="text/css">
	.st0{fill:url(#SVGID_1_);stroke:#FFFFFF;stroke-miterlimit:10;}
	.st1{fill:url(#SVGID_2_);stroke:#FFFFFF;stroke-miterlimit:10;}
	.st2{fill:none;stroke:#FFFFFF;stroke-width:1.3;stroke-linecap:round;stroke-miterlimit:10;}
	.st3{fill:none;stroke:#000000;stroke-width:0.25;stroke-miterlimit:10;}
	.st4{fill:url(#SVGID_3_);stroke:#FFFFFF;stroke-width:0.5;stroke-miterlimit:10;}
	.st5{fill:url(#SVGID_4_);stroke:#FFFFFF;stroke-width:0.5;stroke-miterlimit:10;}
	.st6{fill:url(#SVGID_5_);stroke:#FFFFFF;stroke-width:0.5;stroke-miterlimit:10;}
	.st7{fill:url(#SVGID_6_);}
	.st8{fill:url(#SVGID_7_);}
	.st9{fill:url(#SVGID_8_);}
</style>
<g>
	<g>
		
			<radialGradient id="SVGID_1_" cx="37.4356" cy="30.9091" r="6.0331" gradientTransform="matrix(1 0 0 2.38 0 -42.6546)" gradientUnits="userSpaceOnUse">
			<stop  offset="0" style="stop-color:#00A651"/>
			<stop  offset="1" style="stop-color:#000000"/>
		</radialGradient>
		<path class="st0" d="M41.06,32c0.15,0.45,0.26,0.94,0.36,1.45c-0.04,0.08-0.07,0.17-0.11,0.25c-0.4-0.58-1-1.07-1.71-1.4
			c-0.27-0.12-0.56-0.23-0.86-0.3c-0.4-0.11-0.83-0.16-1.27-0.17h-0.04c-0.45,0-0.9,0.06-1.31,0.17c-0.26,0.06-0.52,0.15-0.76,0.26
			c-0.84,0.36-1.51,0.93-1.91,1.64c0.1-0.68,0.25-1.31,0.44-1.9c0.23-0.78,0.52-1.47,0.86-2.04c0.19-0.33,0.39-0.63,0.61-0.89
			c0.62-0.74,1.34-1.16,2.11-1.16s1.51,0.43,2.13,1.18c0.22,0.25,0.41,0.54,0.6,0.87C40.54,30.53,40.83,31.22,41.06,32z"/>
		
			<radialGradient id="SVGID_2_" cx="23.4056" cy="25.2491" r="33.88" gradientTransform="matrix(1 0 0 2.38 0 -34.8438)" gradientUnits="userSpaceOnUse">
			<stop  offset="0" style="stop-color:#00A651"/>
			<stop  offset="1" style="stop-color:#000000"/>
		</radialGradient>
		<path class="st1" d="M43.2,25.24c0,1.68-0.21,3.31-0.6,4.87c-0.02-0.05-0.05-0.1-0.07-0.15c-0.24-0.53-0.51-1.01-0.81-1.44
			c-0.15-0.21-0.3-0.41-0.46-0.61c-0.5-0.61-1.06-1.09-1.66-1.45c-0.66-0.38-1.38-0.59-2.13-0.59c-0.74,0-1.45,0.21-2.11,0.59
			c-0.61,0.35-1.17,0.84-1.67,1.45c-0.16,0.2-0.31,0.4-0.46,0.61c-0.29,0.43-0.57,0.91-0.82,1.44c-0.28,0.62-0.54,1.31-0.73,2.04
			c-0.18,0.64-0.32,1.33-0.42,2.04c-0.09,0.66-0.14,1.34-0.15,2.04v5.3c0.12,0.43,0.54,0.73,1.05,0.73h0.05
			c0.57-0.03,1.02-0.45,1.02-0.97v-4.59c0.01-0.01,0.02-0.02,0.02-0.03c0.06-0.15,0.13-0.3,0.22-0.44c0.4-0.69,1.06-1.26,1.89-1.62
			c0.61-0.27,1.32-0.42,2.07-0.42h0.04c0.77,0.01,1.51,0.17,2.13,0.47c0.35,0.16,0.68,0.37,0.96,0.6
			c-3.41,5.94-9.81,9.93-17.15,9.93c-10.94,0-19.8-8.86-19.8-19.8c0-10.93,8.86-19.79,19.8-19.79C34.34,5.45,43.2,14.31,43.2,25.24z
			"/>
		<g>
			<polyline class="st2" points="22.96,17.44 20.96,17.42 20.27,17.42 16.98,17.39 16.83,17.39 14.54,17.37 			"/>
			<polyline class="st2" points="35.24,17.52 30.38,17.49 29.94,17.49 			"/>
			<path class="st2" d="M13.26,20.8l-0.94-0.01h-0.01c-1.14-0.29-2.01-1.06-2.46-2.11v-0.04c-0.15-0.39-0.24-0.82-0.24-1.27v-0.03
				c0-0.46,0.1-0.89,0.26-1.29v-0.04c0.47-1.04,1.34-1.8,2.48-2.08l0.96,0.01l0.88,0.01h0.01l2.54,0.01l3.43,0.03l3.42,0.03
				l3.43,0.02l3.43,0.03l2.49,0.02h0.93"/>
			<path class="st2" d="M24.52,38v0.01c-0.01,0.66-0.54,1.18-1.21,1.18H23.3c-0.67-0.01-1.2-0.53-1.2-1.19v-0.01
				c0.01-0.65,0.54-1.17,1.21-1.17C23.98,36.82,24.52,37.35,24.52,38z"/>
			<path class="st2" d="M33.87,14.09l0.94,0.01c1.16,0.31,2.09,1.17,2.47,2.27c0.13,0.36,0.2,0.75,0.2,1.15c0,0.01,0,0.01,0,0.02
				c0,0.41-0.08,0.8-0.21,1.17c-0.4,1.1-1.34,1.95-2.51,2.24h-0.94l-0.94-0.01l-2.48-0.02l-1.75-0.01
				c-0.48-0.66-1.04-1.24-1.67-1.73c-0.99-0.78-2.15-1.34-3.42-1.61c-0.23-0.06-0.47-0.1-0.71-0.13"/>
			<g>
				<path class="st2" d="M22.11,38c0,0.66,0.53,1.18,1.2,1.19h0.01c0.67,0,1.2-0.52,1.21-1.18V38c0-0.65-0.54-1.18-1.21-1.18
					l0.02-2.24v-0.13l0.03-3.3v-0.23l0.02-3.2l0.01-1.63c0.01-0.01,0.01-0.01,0-0.01v-0.02c0.01-0.02,0.01-0.04,0.01-0.06
					c0-0.02,0-0.03-0.01-0.05c0.01-0.01,0.01-0.02,0-0.03v-0.01c-0.03-0.8-0.62-1.47-1.39-1.62l-0.05-0.01
					c-0.09-0.02-0.2-0.03-0.3-0.03c-0.09,0-0.18,0.01-0.27,0.03"/>
				<path class="st2" d="M20.02,20.85h0.92l1.5,0.01h0.03c0.34,0.05,0.66,0.13,0.97,0.25c1.46,0.54,2.61,1.72,3.11,3.21
					c0.18,0.53,0.28,1.09,0.28,1.68l-0.01,1.75l-0.02,3.43l-0.02,1.72l-0.01,1.7l-0.02,2.24v1.18l-0.01,1.16
					c-0.4,1.11-1.37,1.98-2.56,2.26c-0.28,0.06-0.56,0.1-0.86,0.1h-0.03c-0.3,0-0.6-0.04-0.88-0.12c-1.19-0.29-2.14-1.17-2.53-2.29
					l0.01-1.16"/>
				<path class="st2" d="M19.89,37.97l0.01-1.15l0.02-2.27v-0.1l0.02-3.32v-0.21l0.03-3.22l0.01-1.25v-0.91
					c0.17-0.66,0.73-1.16,1.41-1.26c0.09-0.02,0.18-0.03,0.27-0.03c0.1,0,0.21,0.01,0.3,0.03l0.05,0.01
					c0.77,0.15,1.36,0.82,1.39,1.62v0.01c0.01,0.01,0.01,0.02,0,0.03v0.13c0,0.01,0,0.01,0,0.01l-0.01,1.63l-0.02,3.2v0.23
					l-0.03,3.3v0.13l-0.02,2.24"/>
				<path class="st2" d="M19.98,26.45l-0.01,1.25l-0.03,3.22v0.21l-0.02,3.32v0.1l-0.02,2.27l-0.01,1.15l-0.01,1.16
					c0.39,1.12,1.34,2,2.53,2.29c0.28,0.08,0.58,0.12,0.88,0.12h0.03c0.3,0,0.58-0.04,0.86-0.1c1.19-0.28,2.16-1.15,2.56-2.26"/>
				<polyline class="st2" points="13.16,20.8 14.03,20.8 14.86,20.81 16.59,20.82 20.02,20.85 				"/>
			</g>
		</g>
	</g>
	<g>
		<path class="st3" d="M39.58,47.68"/>
		<path class="st3" d="M39.58,31.33"/>
		<path class="st3" d="M39.58,34.06"/>
		<path class="st3" d="M39.58,36.78"/>
		<path class="st3" d="M39.58,39.51"/>
		<path class="st3" d="M39.58,9.54"/>
		<path class="st3" d="M39.58,12.26"/>
	</g>
	<linearGradient id="SVGID_3_" gradientUnits="userSpaceOnUse" x1="39.6301" y1="39.0597" x2="41.958" y2="39.141">
		<stop  offset="0" style="stop-color:#00A651"/>
		<stop  offset="0.4971" style="stop-color:#48785D"/>
		<stop  offset="1" style="stop-color:#000000"/>
	</linearGradient>
	<path class="st4" d="M41.72,41.14c0,0.18,0.06,0.35,0.15,0.5h-0.02c-0.22,0.05-0.34,0.07-0.53,0.11H40.5
		c-0.33-0.14-0.58-0.35-0.74-0.62c-0.12-0.19-0.18-0.41-0.18-0.63c0-0.2,0.04-0.41,0.11-0.54c0,0,0,0,0.05-0.15
		c0-0.02,0,0,0.02-0.05c0.04-0.08,0.05-0.17,0.09-0.27c0.04-0.09,0.08-0.19,0.12-0.3c0.31-0.71,0.82-1.58,1.5-2.56
		c0.04-0.06,0.08-0.11,0.12-0.17c0.01,0.02,0.02,0.04,0.03,0.06c0.03,0.09,0.07,0.19,0.09,0.29c0.01,0,0.01,0.01,0.01,0.02V41.14z"
		/>
	<linearGradient id="SVGID_4_" gradientUnits="userSpaceOnUse" x1="43.8018" y1="39.7747" x2="60.017" y2="40.3409">
		<stop  offset="0" style="stop-color:#00A651"/>
		<stop  offset="0.4971" style="stop-color:#48785D"/>
		<stop  offset="1" style="stop-color:#000000"/>
	</linearGradient>
	<path class="st5" d="M60.01,40.5c0,0.22-0.06,0.44-0.18,0.63c-0.16,0.27-0.41,0.48-0.74,0.62c-0.11,0.04-0.25,0.08-0.39,0.09
		c-0.12-0.03-0.25-0.07-0.39-0.09c-0.22-0.04-0.44-0.09-0.68-0.13c-0.21-0.03-0.43-0.06-0.67-0.1c-0.82-0.11-1.79-0.2-2.86-0.26
		c-0.9-0.06-1.86-0.11-2.87-0.12c-0.47-0.01-0.94-0.01-1.42-0.01h-0.07c-0.47,0-0.92,0.01-1.38,0.01c-0.53,0.01-1.07,0.02-1.57,0.04
		c-0.45,0.03-0.88,0.05-1.3,0.08c-0.59,0.03-1.14,0.08-1.66,0.13c0-0.01,0.01-0.02,0.01-0.03v-2.7c0.51-0.05,1.07-0.1,1.65-0.13
		c0.08,0,0.15-0.01,0.22-0.01c0.83-0.05,1.73-0.09,2.65-0.1c0.46-0.02,0.92-0.02,1.38-0.02c0.24,0,0.49,0,0.73,0.01
		c0.25,0,0.5,0,0.76,0.01c1.01,0.02,1.97,0.06,2.87,0.11c1.07,0.08,2.04,0.17,2.86,0.28c0.74,0.1,1.36,0.22,1.83,0.35
		c0.04,0.01,0.07,0.02,0.09,0.03c0.01,0,0.01,0,0.01,0c0.06,0.02,0.1,0.03,0.13,0.04c0.03,0.02,0.05,0.03,0.08,0.03h0.02
		c0.01,0.01,0.01,0.01,0.02,0.01c0.29,0.12,0.52,0.32,0.67,0.57c0.02,0.01,0.02,0.02,0.02,0.03C59.95,40.06,60.01,40.27,60.01,40.5z
		"/>
	<linearGradient id="SVGID_5_" gradientUnits="userSpaceOnUse" x1="39.483" y1="29.2739" x2="59.7051" y2="29.9801">
		<stop  offset="0" style="stop-color:#00A651"/>
		<stop  offset="0.4971" style="stop-color:#48785D"/>
		<stop  offset="1" style="stop-color:#000000"/>
	</linearGradient>
	<path class="st6" d="M43.84,36.08c-0.01-0.7-0.05-1.38-0.15-2.04c-0.01-0.08-0.02-0.16-0.04-0.24c0.57-0.68,1.17-1.37,1.84-2.09
		c0.05-0.06,0.12-0.12,0.18-0.19c0.61-0.66,1.26-1.33,1.95-2.01c0.19-0.19,0.38-0.37,0.57-0.55c0.06-0.06,0.11-0.12,0.17-0.18
		c0.89-0.85,1.76-1.64,2.61-2.38c0.09-0.07,0.17-0.15,0.26-0.22c0.13-0.11,0.27-0.23,0.4-0.33c0.86-0.72,1.69-1.38,2.47-1.95
		c0.02-0.02,0.05-0.04,0.07-0.06c0.25-0.18,0.5-0.35,0.73-0.52c-0.27-0.01-0.53-0.03-0.8-0.05c-0.38-0.03-0.77-0.05-1.18-0.07
		c-0.55-0.02-1.12-0.03-1.69-0.03c-0.44-0.02-0.87-0.02-1.31-0.02c-0.53,0-1.05,0.01-1.56,0.02c-0.55,0-1.09,0.02-1.62,0.04
		c-0.43,0.02-0.85,0.05-1.25,0.08c-0.87,0.05-1.67,0.13-2.37,0.22c-0.17,0.02-0.33,0.04-0.49,0.06c-0.19,0.03-0.37,0.06-0.54,0.08
		c-0.35,0.06-0.67,0.13-0.95,0.19c-0.03,0.01-0.07,0.01-0.09,0.02c-0.05,0-0.1-0.01-0.14-0.02c-0.57-0.11-1.02-0.51-1.15-1.01
		c-0.03-0.1-0.04-0.2-0.04-0.3c0-0.11,0-0.21,0.04-0.3c0.01-0.04,0.01-0.05,0.03-0.1c0.12-0.29,0.27-0.54,0.56-0.71
		c0-0.01,0.05-0.03,0.05-0.03c0.19-0.06,0.25-0.07,0.36-0.1c0.15-0.05,0.32-0.09,0.51-0.12c0.39-0.08,0.85-0.16,1.36-0.23
		c0.03,0,0.06-0.01,0.1-0.01c0.8-0.11,1.73-0.2,2.76-0.26c0.9-0.06,1.86-0.1,2.87-0.11c0.46-0.01,0.92-0.01,1.38-0.01
		c0.51,0,1,0,1.49,0.01c1.01,0.02,1.97,0.06,2.87,0.12c1.07,0.07,2.04,0.17,2.86,0.27c0.49,0.07,0.95,0.15,1.32,0.23
		c0.16,0.04,0.41,0.09,0.55,0.13c0.36,0.1,0.62,0.21,0.79,0.32l0.06,0.07l0.15,0.2c0.05,0.11,0.12,0.2,0.14,0.33
		c0.02,0.18-0.07,0.39-0.14,0.63c-0.06,0.17-0.13,0.35-0.22,0.56l-0.02,0.04c0,0,0,0-0.1,0.17l-0.09,0.09
		c-0.05,0.05-0.07,0.07-0.15,0.12c-0.05,0.03-0.1,0.06-0.17,0.1c-0.64,0.37-1.35,0.83-2.12,1.38c-0.09,0.06-0.17,0.13-0.25,0.19
		c-0.39,0.27-0.78,0.58-1.19,0.89c-0.47,0.37-0.94,0.76-1.42,1.16c-0.53,0.44-1.07,0.91-1.59,1.4c-0.43,0.37-0.85,0.77-1.28,1.17
		c-0.35,0.34-0.71,0.68-1.06,1.03c-0.12,0.12-0.24,0.24-0.35,0.36c-0.52,0.51-0.99,1.01-1.46,1.49c-0.33,0.36-0.66,0.72-0.96,1.07
		c-0.7,0.77-1.34,1.53-1.91,2.24c-0.09,0.1-0.17,0.21-0.24,0.31c-0.54,0.67-1.01,1.32-1.41,1.92V36.08z"/>
	<linearGradient id="SVGID_6_" gradientUnits="userSpaceOnUse" x1="31.1106" y1="33.9942" x2="42.6006" y2="33.9942">
		<stop  offset="0" style="stop-color:#00A651"/>
		<stop  offset="1" style="stop-color:#000000"/>
	</linearGradient>
	<path class="st7" d="M33.89,32c-0.19,0.59-0.34,1.22-0.44,1.9c0.4-0.71,1.07-1.28,1.91-1.64c0.24-0.11,0.5-0.2,0.76-0.26
		c0.41-0.11,0.86-0.17,1.31-0.17h0.04c0.44,0.01,0.87,0.06,1.27,0.17c0.3,0.07,0.59,0.18,0.86,0.3c0.71,0.33,1.31,0.82,1.71,1.4
		c-0.23,0.48-0.48,0.95-0.75,1.41c-0.28-0.23-0.61-0.44-0.96-0.6c-0.62-0.3-1.36-0.46-2.13-0.47h-0.04c-0.75,0-1.46,0.15-2.07,0.42
		c-0.83,0.36-1.49,0.93-1.89,1.62c-0.09,0.14-0.16,0.29-0.22,0.44c0,0.01-0.01,0.02-0.02,0.03v4.59c0,0.52-0.45,0.94-1.02,0.97
		h-0.05c-0.51,0-0.93-0.3-1.05-0.73v-5.3c0.01-0.7,0.06-1.38,0.15-2.04c0.1-0.71,0.24-1.4,0.42-2.04c0.19-0.73,0.45-1.42,0.73-2.04
		c0.25-0.53,0.53-1.01,0.82-1.44c0.15-0.21,0.3-0.41,0.46-0.61c0.5-0.61,1.06-1.1,1.67-1.45c0.66-0.38,1.37-0.59,2.11-0.59
		c0.75,0,1.47,0.21,2.13,0.59c0.6,0.36,1.16,0.84,1.66,1.45c0.16,0.2,0.31,0.4,0.46,0.61c0.3,0.43,0.57,0.91,0.81,1.44
		c0.02,0.05,0.05,0.1,0.07,0.15c-0.3,1.16-0.69,2.27-1.18,3.34c-0.1-0.51-0.21-1-0.36-1.45c-0.23-0.78-0.52-1.47-0.86-2.04
		c-0.19-0.33-0.38-0.62-0.6-0.87c-0.62-0.75-1.36-1.18-2.13-1.18s-1.49,0.42-2.11,1.16c-0.22,0.26-0.42,0.56-0.61,0.89
		C34.41,30.53,34.12,31.22,33.89,32z"/>
	<linearGradient id="SVGID_7_" gradientUnits="userSpaceOnUse" x1="40.5606" y1="36.1142" x2="43.8406" y2="36.1142">
		<stop  offset="0" style="stop-color:#00A651"/>
		<stop  offset="1" style="stop-color:#000000"/>
	</linearGradient>
	<path class="st8" d="M43.76,38.67c0.03,0,0.05-0.01,0.08-0.01v-0.11C43.81,38.59,43.79,38.63,43.76,38.67z M43.42,34.08
		c0.08-0.09,0.15-0.19,0.23-0.28c-0.08-0.63-0.21-1.23-0.37-1.8c-0.18-0.67-0.41-1.31-0.68-1.89c-0.3,1.16-0.69,2.27-1.18,3.34
		c0.04,0.19,0.07,0.39,0.1,0.59c-0.06-0.12-0.13-0.23-0.21-0.34c-0.23,0.48-0.48,0.95-0.75,1.41c0.34,0.28,0.63,0.61,0.84,0.97
		c0.07,0.12,0.13,0.25,0.19,0.38c0.31-0.45,0.66-0.91,1.04-1.4C42.87,34.74,43.14,34.41,43.42,34.08z M42.27,41.58
		c-0.1,0.02,0.01,0-0.22,0.03l-0.18,0.03c0.18,0.27,0.5,0.45,0.87,0.47h0.06c0.49,0,0.91-0.31,1.03-0.72
		c-0.43,0.04-0.83,0.09-1.2,0.14C42.5,41.54,42.39,41.56,42.27,41.58z"/>
	<linearGradient id="SVGID_8_" gradientUnits="userSpaceOnUse" x1="41.5906" y1="37.7241" x2="43.8406" y2="37.7241">
		<stop  offset="0" style="stop-color:#00A651"/>
		<stop  offset="1" style="stop-color:#000000"/>
	</linearGradient>
	<path class="st9" d="M43.84,38.55c-0.03,0.04-0.05,0.08-0.08,0.12c0.03,0,0.05-0.01,0.08-0.01v2.7c0,0.01-0.01,0.02-0.01,0.03
		c-0.43,0.04-0.83,0.09-1.2,0.14c-0.13,0.01-0.24,0.03-0.36,0.05c-0.1,0.02,0.01,0-0.22,0.03l-0.18,0.03
		c-0.09-0.15-0.15-0.32-0.15-0.5v-4.31c0-0.01,0-0.02-0.01-0.02c-0.02-0.1-0.06-0.2-0.09-0.29c-0.01-0.02-0.02-0.04-0.03-0.06
		c0.31-0.45,0.66-0.91,1.04-1.4c0.24-0.32,0.51-0.65,0.79-0.98c0.08-0.09,0.15-0.19,0.23-0.28c0.02,0.08,0.03,0.16,0.04,0.24
		c0.1,0.66,0.14,1.34,0.15,2.04V38.55z"/>
</g>
</svg>
